REM DIRINDEX 1\2\5,1\2\6,1\2\7,1\2\8,1\3\9,1\3\10,1\3\11,1\4\12,1\4\13,1\4\14,1\4\15,1\4\16
REM DIRNAME cjc034,folder01,folder02,folder03,folder04,folder05,folder06,folder07,folder08,folder09,folder10,folder11,folder12,folder13,folder14,folder15
TITLE ""
FILE "1200_2_sec03_0655_0673.mp3" MP3
  TRACK 01 AUDIO
    TITLE "0:"
    INDEX 01 00:00:00
  TRACK 02 AUDIO
    TITLE "10:cjc034_01344"
    INDEX 01 00:00:15
  TRACK 03 AUDIO
    TITLE "0:"
    INDEX 01 00:03:04
  TRACK 04 AUDIO
    TITLE "9:cjc034_01345"
    INDEX 01 00:03:17
  TRACK 05 AUDIO
    TITLE "0:"
    INDEX 01 00:04:19
  TRACK 06 AUDIO
    TITLE "10:cjc034_01346"
    INDEX 01 00:05:05
  TRACK 07 AUDIO
    TITLE "0:"
    INDEX 01 00:06:12
  TRACK 08 AUDIO
    TITLE "9:cjc034_01347"
    INDEX 01 00:06:20
  TRACK 09 AUDIO
    TITLE "0:"
    INDEX 01 00:07:49
  TRACK 10 AUDIO
    TITLE "10:cjc034_01348"
    INDEX 01 00:08:32
  TRACK 11 AUDIO
    TITLE "0:"
    INDEX 01 00:11:07
  TRACK 12 AUDIO
    TITLE "9:cjc034_01349"
    INDEX 01 00:11:13
  TRACK 13 AUDIO
    TITLE "0:"
    INDEX 01 00:12:52
  TRACK 14 AUDIO
    TITLE "10:cjc034_01350"
    INDEX 01 00:13:28
  TRACK 15 AUDIO
    TITLE "0:"
    INDEX 01 00:14:43
  TRACK 16 AUDIO
    TITLE "9:cjc034_01351"
    INDEX 01 00:14:51
  TRACK 17 AUDIO
    TITLE "0:"
    INDEX 01 00:15:66
  TRACK 18 AUDIO
    TITLE "10:cjc034_01352"
    INDEX 01 00:16:49
  TRACK 19 AUDIO
    TITLE "0:"
    INDEX 01 00:18:01
  TRACK 20 AUDIO
    TITLE "9:cjc034_01353"
    INDEX 01 00:18:07
  TRACK 21 AUDIO
    TITLE "0:"
    INDEX 01 00:19:34
  TRACK 22 AUDIO
    TITLE "10:cjc034_01354"
    INDEX 01 00:20:20
  TRACK 23 AUDIO
    TITLE "0:"
    INDEX 01 00:21:21
  TRACK 24 AUDIO
    TITLE "9:cjc034_01355"
    INDEX 01 00:21:25
  TRACK 25 AUDIO
    TITLE "0:"
    INDEX 01 00:22:34
  TRACK 26 AUDIO
    TITLE "10:cjc034_01356"
    INDEX 01 00:23:16
  TRACK 27 AUDIO
    TITLE "0:"
    INDEX 01 00:24:22
  TRACK 28 AUDIO
    TITLE "9:cjc034_01357"
    INDEX 01 00:24:25
  TRACK 29 AUDIO
    TITLE "0:"
    INDEX 01 00:25:50
  TRACK 30 AUDIO
    TITLE "10:cjc034_01358"
    INDEX 01 00:26:30
  TRACK 31 AUDIO
    TITLE "0:"
    INDEX 01 00:27:22
  TRACK 32 AUDIO
    TITLE "9:cjc034_01359"
    INDEX 01 00:27:32
  TRACK 33 AUDIO
    TITLE "0:"
    INDEX 01 00:28:45
  TRACK 34 AUDIO
    TITLE "10:cjc034_01360"
    INDEX 01 00:29:27
  TRACK 35 AUDIO
    TITLE "0:"
    INDEX 01 00:30:36
  TRACK 36 AUDIO
    TITLE "9:cjc034_01361"
    INDEX 01 00:30:42
  TRACK 37 AUDIO
    TITLE "0:"
    INDEX 01 00:31:57
  TRACK 38 AUDIO
    TITLE "10:cjc034_01362"
    INDEX 01 00:32:41
  TRACK 39 AUDIO
    TITLE "0:"
    INDEX 01 00:33:26
  TRACK 40 AUDIO
    TITLE "9:cjc034_01363"
    INDEX 01 00:33:30
  TRACK 41 AUDIO
    TITLE "0:"
    INDEX 01 00:34:42
  TRACK 42 AUDIO
    TITLE "10:cjc034_01364"
    INDEX 01 00:35:25
  TRACK 43 AUDIO
    TITLE "0:"
    INDEX 01 00:37:65
  TRACK 44 AUDIO
    TITLE "9:cjc034_01365"
    INDEX 01 00:37:73
  TRACK 45 AUDIO
    TITLE "0:"
    INDEX 01 00:39:19
  TRACK 46 AUDIO
    TITLE "10:cjc034_01366"
    INDEX 01 00:40:05
  TRACK 47 AUDIO
    TITLE "0:"
    INDEX 01 00:41:16
  TRACK 48 AUDIO
    TITLE "9:cjc034_01367"
    INDEX 01 00:41:24
  TRACK 49 AUDIO
    TITLE "0:"
    INDEX 01 00:42:55
  TRACK 50 AUDIO
    TITLE "11:cjc034_01368"
    INDEX 01 00:44:34
  TRACK 51 AUDIO
    TITLE "0:"
    INDEX 01 00:48:06
  TRACK 52 AUDIO
    TITLE "10:cjc034_01369"
    INDEX 01 00:49:12
  TRACK 53 AUDIO
    TITLE "0:"
    INDEX 01 00:51:54
  TRACK 54 AUDIO
    TITLE "9:cjc034_01370"
    INDEX 01 00:51:60
  TRACK 55 AUDIO
    TITLE "0:"
    INDEX 01 00:53:04
  TRACK 56 AUDIO
    TITLE "10:cjc034_01371"
    INDEX 01 00:53:64
  TRACK 57 AUDIO
    TITLE "0:"
    INDEX 01 00:55:14
  TRACK 58 AUDIO
    TITLE "9:cjc034_01372"
    INDEX 01 00:55:18
  TRACK 59 AUDIO
    TITLE "0:"
    INDEX 01 00:56:22
  TRACK 60 AUDIO
    TITLE "10:cjc034_01373"
    INDEX 01 00:57:07
  TRACK 61 AUDIO
    TITLE "0:"
    INDEX 01 00:58:26
  TRACK 62 AUDIO
    TITLE "9:cjc034_01374"
    INDEX 01 00:58:28
  TRACK 63 AUDIO
    TITLE "0:"
    INDEX 01 00:59:43
  TRACK 64 AUDIO
    TITLE "10:cjc034_01375"
    INDEX 01 01:00:25
  TRACK 65 AUDIO
    TITLE "0:"
    INDEX 01 01:01:42
  TRACK 66 AUDIO
    TITLE "9:cjc034_01376"
    INDEX 01 01:01:48
  TRACK 67 AUDIO
    TITLE "0:"
    INDEX 01 01:03:10
  TRACK 68 AUDIO
    TITLE "10:cjc034_01377"
    INDEX 01 01:03:69
  TRACK 69 AUDIO
    TITLE "0:"
    INDEX 01 01:04:72
  TRACK 70 AUDIO
    TITLE "9:cjc034_01378"
    INDEX 01 01:04:74
  TRACK 71 AUDIO
    TITLE "0:"
    INDEX 01 01:06:00
  TRACK 72 AUDIO
    TITLE "10:cjc034_01379"
    INDEX 01 01:06:59
  TRACK 73 AUDIO
    TITLE "0:"
    INDEX 01 01:08:01
  TRACK 74 AUDIO
    TITLE "9:cjc034_01380"
    INDEX 01 01:08:09
  TRACK 75 AUDIO
    TITLE "0:"
    INDEX 01 01:09:18
  TRACK 76 AUDIO
    TITLE "10:cjc034_01381"
    INDEX 01 01:10:04
  TRACK 77 AUDIO
    TITLE "0:"
    INDEX 01 01:11:07
  TRACK 78 AUDIO
    TITLE "9:cjc034_01382"
    INDEX 01 01:11:15
  TRACK 79 AUDIO
    TITLE "0:"
    INDEX 01 01:12:38
